<mxfile host="app.diagrams.net" modified="2024-05-09T12:07:27.792Z" agent="Mozilla/5.0 (Windows NT 10.0; Win64; x64) AppleWebKit/537.36 (KHTML, like Gecko) Chrome/122.0.0.0 YaBrowser/24.4.0.0 Safari/537.36" etag="mTdurD6zCq-jCZSKh3uA" version="24.3.1" type="device">
  <diagram id="C5RBs43oDa-KdzZeNtuy" name="Page-1">
    <mxGraphModel dx="1026" dy="445" grid="1" gridSize="10" guides="1" tooltips="1" connect="1" arrows="1" fold="1" page="1" pageScale="1" pageWidth="827" pageHeight="1169" math="0" shadow="0">
      <root>
        <mxCell id="WIyWlLk6GJQsqaUBKTNV-0" />
        <mxCell id="WIyWlLk6GJQsqaUBKTNV-1" parent="WIyWlLk6GJQsqaUBKTNV-0" />
        <mxCell id="u6XI-dJovtT7sG6YAIfk-0" value="Получение красного, зелёного и синего цветов из строки HEX формата" style="rounded=0;whiteSpace=wrap;html=1;" parent="WIyWlLk6GJQsqaUBKTNV-1" vertex="1">
          <mxGeometry x="80" y="70" width="200" height="60" as="geometry" />
        </mxCell>
        <mxCell id="u6XI-dJovtT7sG6YAIfk-1" value="Вычисление яркости полученного цвета" style="rounded=0;whiteSpace=wrap;html=1;" parent="WIyWlLk6GJQsqaUBKTNV-1" vertex="1">
          <mxGeometry x="80" y="140" width="200" height="60" as="geometry" />
        </mxCell>
        <mxCell id="u6XI-dJovtT7sG6YAIfk-3" value="Вернуть белый&amp;nbsp;&lt;div&gt;цвет&lt;/div&gt;" style="shape=parallelogram;perimeter=parallelogramPerimeter;whiteSpace=wrap;html=1;fixedSize=1;" parent="WIyWlLk6GJQsqaUBKTNV-1" vertex="1">
          <mxGeometry x="340" y="250" width="145" height="60" as="geometry" />
        </mxCell>
        <mxCell id="u6XI-dJovtT7sG6YAIfk-5" value="Вернуть чёрный&amp;nbsp;&lt;div&gt;цвет&lt;/div&gt;" style="shape=parallelogram;perimeter=parallelogramPerimeter;whiteSpace=wrap;html=1;fixedSize=1;" parent="WIyWlLk6GJQsqaUBKTNV-1" vertex="1">
          <mxGeometry x="340" y="380" width="145" height="60" as="geometry" />
        </mxCell>
        <mxCell id="u6XI-dJovtT7sG6YAIfk-7" value="Содержание красного&amp;nbsp;&lt;div&gt;цвета больше содержания&amp;nbsp;&lt;div&gt;зелёного и голубого?&amp;nbsp;&lt;/div&gt;&lt;/div&gt;" style="rhombus;whiteSpace=wrap;html=1;" parent="WIyWlLk6GJQsqaUBKTNV-1" vertex="1">
          <mxGeometry x="77.5" y="485" width="205" height="120" as="geometry" />
        </mxCell>
        <mxCell id="u6XI-dJovtT7sG6YAIfk-8" value="Красный - зелёный &amp;gt; 30 и&amp;nbsp;&lt;div&gt;красный - голубой &amp;gt; 20?&lt;/div&gt;" style="rhombus;whiteSpace=wrap;html=1;" parent="WIyWlLk6GJQsqaUBKTNV-1" vertex="1">
          <mxGeometry x="310" y="485" width="205" height="120" as="geometry" />
        </mxCell>
        <mxCell id="u6XI-dJovtT7sG6YAIfk-9" value="Вернуть оранжевый&amp;nbsp;&lt;div&gt;цвет&lt;/div&gt;" style="shape=parallelogram;perimeter=parallelogramPerimeter;whiteSpace=wrap;html=1;fixedSize=1;" parent="WIyWlLk6GJQsqaUBKTNV-1" vertex="1">
          <mxGeometry x="550" y="515" width="145" height="60" as="geometry" />
        </mxCell>
        <mxCell id="u6XI-dJovtT7sG6YAIfk-10" value="Красный - голубой &amp;gt; 50&lt;span style=&quot;background-color: initial;&quot;&gt;?&lt;/span&gt;" style="rhombus;whiteSpace=wrap;html=1;" parent="WIyWlLk6GJQsqaUBKTNV-1" vertex="1">
          <mxGeometry x="310" y="620" width="205" height="120" as="geometry" />
        </mxCell>
        <mxCell id="u6XI-dJovtT7sG6YAIfk-11" value="Вернуть красный&amp;nbsp;&lt;div&gt;цвет&lt;/div&gt;" style="shape=parallelogram;perimeter=parallelogramPerimeter;whiteSpace=wrap;html=1;fixedSize=1;" parent="WIyWlLk6GJQsqaUBKTNV-1" vertex="1">
          <mxGeometry x="550" y="650" width="145" height="60" as="geometry" />
        </mxCell>
        <mxCell id="u6XI-dJovtT7sG6YAIfk-12" value="Вернуть розовый&amp;nbsp;&lt;div&gt;цвет&lt;/div&gt;" style="shape=parallelogram;perimeter=parallelogramPerimeter;whiteSpace=wrap;html=1;fixedSize=1;" parent="WIyWlLk6GJQsqaUBKTNV-1" vertex="1">
          <mxGeometry x="340" y="770" width="145" height="60" as="geometry" />
        </mxCell>
        <mxCell id="u6XI-dJovtT7sG6YAIfk-13" value="Содержание зелёного&amp;nbsp;&lt;div&gt;цвета больше содержания&amp;nbsp;&lt;div&gt;красного и голубого?&amp;nbsp;&lt;/div&gt;&lt;/div&gt;" style="rhombus;whiteSpace=wrap;html=1;" parent="WIyWlLk6GJQsqaUBKTNV-1" vertex="1">
          <mxGeometry x="77.5" y="840" width="205" height="120" as="geometry" />
        </mxCell>
        <mxCell id="u6XI-dJovtT7sG6YAIfk-14" value="Зелёный - голубой &amp;gt; 50&lt;span style=&quot;background-color: initial;&quot;&gt;?&lt;/span&gt;" style="rhombus;whiteSpace=wrap;html=1;" parent="WIyWlLk6GJQsqaUBKTNV-1" vertex="1">
          <mxGeometry x="310" y="840" width="205" height="120" as="geometry" />
        </mxCell>
        <mxCell id="u6XI-dJovtT7sG6YAIfk-15" value="Вернуть зелёный&amp;nbsp;&lt;div&gt;цвет&lt;/div&gt;" style="shape=parallelogram;perimeter=parallelogramPerimeter;whiteSpace=wrap;html=1;fixedSize=1;" parent="WIyWlLk6GJQsqaUBKTNV-1" vertex="1">
          <mxGeometry x="550" y="870" width="145" height="60" as="geometry" />
        </mxCell>
        <mxCell id="u6XI-dJovtT7sG6YAIfk-16" value="Вернуть жёлтый&amp;nbsp;&lt;div&gt;цвет&lt;/div&gt;" style="shape=parallelogram;perimeter=parallelogramPerimeter;whiteSpace=wrap;html=1;fixedSize=1;" parent="WIyWlLk6GJQsqaUBKTNV-1" vertex="1">
          <mxGeometry x="340" y="990" width="145" height="60" as="geometry" />
        </mxCell>
        <mxCell id="u6XI-dJovtT7sG6YAIfk-17" value="Содержание голубого&amp;nbsp;&lt;div&gt;цвета больше содержания&amp;nbsp;&lt;div&gt;красного и зелёного?&amp;nbsp;&lt;/div&gt;&lt;/div&gt;" style="rhombus;whiteSpace=wrap;html=1;" parent="WIyWlLk6GJQsqaUBKTNV-1" vertex="1">
          <mxGeometry x="77.5" y="1060" width="205" height="120" as="geometry" />
        </mxCell>
        <mxCell id="u6XI-dJovtT7sG6YAIfk-18" value="Голубой - красный &amp;gt; 50&lt;span style=&quot;background-color: initial;&quot;&gt;?&lt;/span&gt;" style="rhombus;whiteSpace=wrap;html=1;" parent="WIyWlLk6GJQsqaUBKTNV-1" vertex="1">
          <mxGeometry x="310" y="1060" width="205" height="120" as="geometry" />
        </mxCell>
        <mxCell id="u6XI-dJovtT7sG6YAIfk-19" value="Вернуть голубой&amp;nbsp;&lt;br&gt;&lt;div&gt;&lt;span style=&quot;color: rgba(0, 0, 0, 0); font-family: monospace; font-size: 0px; text-align: start; text-wrap: nowrap; background-color: initial;&quot;&gt;%3CmxGraphModel%3E%3Croot%3E%3CmxCell%20id%3D%220%22%2F%3E%3CmxCell%20id%3D%221%22%20parent%3D%220%22%2F%3E%3CmxCell%20id%3D%222%22%20value%3D%22%D0%92%D0%B5%D1%80%D0%BD%D1%83%D1%82%D1%8C%20%D0%B6%D1%91%D0%BB%D1%82%D1%8B%D0%B9%26amp%3Bnbsp%3B%26lt%3Bdiv%26gt%3B%D1%86%D0%B2%D0%B5%D1%82%26lt%3B%2Fdiv%26gt%3B%22%20style%3D%22shape%3Dparallelogram%3Bperimeter%3DparallelogramPerimeter%3BwhiteSpace%3Dwrap%3Bhtml%3D1%3BfixedSize%3D1%3B%22%20vertex%3D%221%22%20parent%3D%221%22%3E%3CmxGeometry%20x%3D%22330%22%20y%3D%22970%22%20width%3D%22145%22%20height%3D%2260%22%20as%3D%22geometry%22%2F%3E%3C%2FmxCell%3E%3C%2Froot%3E%3C%2FmxGraphModel%3E&lt;/span&gt;цвет&lt;/div&gt;" style="shape=parallelogram;perimeter=parallelogramPerimeter;whiteSpace=wrap;html=1;fixedSize=1;" parent="WIyWlLk6GJQsqaUBKTNV-1" vertex="1">
          <mxGeometry x="550" y="1090" width="145" height="60" as="geometry" />
        </mxCell>
        <mxCell id="u6XI-dJovtT7sG6YAIfk-20" value="&amp;nbsp; &amp;nbsp;Вернуть фиолетовый&amp;nbsp;&lt;br&gt;&lt;div&gt;&lt;span style=&quot;color: rgba(0, 0, 0, 0); font-family: monospace; font-size: 0px; text-align: start; text-wrap: nowrap; background-color: initial;&quot;&gt;%3CmxGraphModel%3E%3Croot%3E%3CmxCell%20id%3D%220%22%2F%3E%3CmxCell%20id%3D%221%22%20parent%3D%220%22%2F%3E%3CmxCell%20id%3D%222%22%20value%3D%22%D0%92%D0%B5%D1%80%D0%BD%D1%83%D1%82%D1%8C%20%D0%B6%D1%91%D0%BB%D1%82%D1%8B%D0%B9%26amp%3Bnbsp%3B%26lt%3Bdiv%26gt%3B%D1%86%D0%B2%D0%B5%D1%82%26lt%3B%2Fdiv%26gt%3B%22%20style%3D%22shape%3Dparallelogram%3Bperimeter%3DparallelogramPerimeter%3BwhiteSpace%3Dwrap%3Bhtml%3D1%3BfixedSize%3D1%3B%22%20vertex%3D%221%22%20parent%3D%221%22%3E%3CmxGeometry%20x%3D%22330%22%20y%3D%22970%22%20width%3D%22145%22%20height%3D%2260%22%20as%3D%22geometry%22%2F%3E%3C%2FmxCell%3E%3C%2Froot%3E%3C%2FmxGraphModel%3E&lt;/span&gt;цвет&lt;/div&gt;" style="shape=parallelogram;perimeter=parallelogramPerimeter;whiteSpace=wrap;html=1;fixedSize=1;" parent="WIyWlLk6GJQsqaUBKTNV-1" vertex="1">
          <mxGeometry x="340" y="1200" width="145" height="60" as="geometry" />
        </mxCell>
        <mxCell id="u6XI-dJovtT7sG6YAIfk-21" value="&amp;nbsp; &amp;nbsp;Вернуть коричневый&lt;br&gt;&lt;div&gt;&lt;span style=&quot;color: rgba(0, 0, 0, 0); font-family: monospace; font-size: 0px; text-align: start; text-wrap: nowrap; background-color: initial;&quot;&gt;%3CmxGraphModel%3E%3Croot%3E%3CmxCell%20id%3D%220%22%2F%3E%3CmxCell%20id%3D%221%22%20parent%3D%220%22%2F%3E%3CmxCell%20id%3D%222%22%20value%3D%22%D0%92%D0%B5%D1%80%D0%BD%D1%83%D1%82%D1%8C%20%D0%B6%D1%91%D0%BB%D1%82%D1%8B%D0%B9%26amp%3Bnbsp%3B%26lt%3Bdiv%26gt%3B%D1%86%D0%B2%D0%B5%D1%82%26lt%3B%2Fdiv%26gt%3B%22%20style%3D%22shape%3Dparallelogram%3Bperimeter%3DparallelogramPerimeter%3BwhiteSpace%3Dwrap%3Bhtml%3D1%3BfixedSize%3D1%3B%22%20vertex%3D%221%22%20parent%3D%221%22%3E%3CmxGeometry%20x%3D%22330%22%20y%3D%22970%22%20width%3D%22145%22%20height%3D%2260%22%20as%3D%22geometry%22%2F%3E%3C%2FmxCell%3E%3C%2Froot%3E%3C%2FmxGraphModel%3E&lt;/span&gt;цвет&lt;/div&gt;" style="shape=parallelogram;perimeter=parallelogramPerimeter;whiteSpace=wrap;html=1;fixedSize=1;" parent="WIyWlLk6GJQsqaUBKTNV-1" vertex="1">
          <mxGeometry x="107.5" y="1200" width="145" height="60" as="geometry" />
        </mxCell>
        <mxCell id="u6XI-dJovtT7sG6YAIfk-25" value="" style="endArrow=none;html=1;rounded=0;exitX=0.5;exitY=0;exitDx=0;exitDy=0;entryX=0.488;entryY=0.994;entryDx=0;entryDy=0;entryPerimeter=0;" parent="WIyWlLk6GJQsqaUBKTNV-1" source="u6XI-dJovtT7sG6YAIfk-0" target="FxWy3S0wNq0ULgGaOXV3-0" edge="1">
          <mxGeometry width="50" height="50" relative="1" as="geometry">
            <mxPoint x="350" y="90" as="sourcePoint" />
            <mxPoint x="180" y="60" as="targetPoint" />
          </mxGeometry>
        </mxCell>
        <mxCell id="u6XI-dJovtT7sG6YAIfk-26" value="" style="endArrow=none;html=1;rounded=0;exitX=0.5;exitY=0;exitDx=0;exitDy=0;entryX=0.5;entryY=1;entryDx=0;entryDy=0;" parent="WIyWlLk6GJQsqaUBKTNV-1" source="u6XI-dJovtT7sG6YAIfk-1" target="u6XI-dJovtT7sG6YAIfk-0" edge="1">
          <mxGeometry width="50" height="50" relative="1" as="geometry">
            <mxPoint x="179.76" y="140" as="sourcePoint" />
            <mxPoint x="179.76" y="130" as="targetPoint" />
          </mxGeometry>
        </mxCell>
        <mxCell id="u6XI-dJovtT7sG6YAIfk-27" value="" style="endArrow=none;html=1;rounded=0;exitX=0.5;exitY=0;exitDx=0;exitDy=0;entryX=0.5;entryY=1;entryDx=0;entryDy=0;" parent="WIyWlLk6GJQsqaUBKTNV-1" source="u6XI-dJovtT7sG6YAIfk-49" target="u6XI-dJovtT7sG6YAIfk-1" edge="1">
          <mxGeometry width="50" height="50" relative="1" as="geometry">
            <mxPoint x="178.75" y="220" as="sourcePoint" />
            <mxPoint x="330" y="200" as="targetPoint" />
          </mxGeometry>
        </mxCell>
        <mxCell id="u6XI-dJovtT7sG6YAIfk-28" value="" style="endArrow=none;html=1;rounded=0;exitX=1;exitY=0.5;exitDx=0;exitDy=0;" parent="WIyWlLk6GJQsqaUBKTNV-1" edge="1">
          <mxGeometry width="50" height="50" relative="1" as="geometry">
            <mxPoint x="280" y="280" as="sourcePoint" />
            <mxPoint x="350" y="280" as="targetPoint" />
          </mxGeometry>
        </mxCell>
        <mxCell id="u6XI-dJovtT7sG6YAIfk-29" value="А" style="ellipse;whiteSpace=wrap;html=1;aspect=fixed;" parent="WIyWlLk6GJQsqaUBKTNV-1" vertex="1">
          <mxGeometry x="592.5" y="250" width="60" height="60" as="geometry" />
        </mxCell>
        <mxCell id="u6XI-dJovtT7sG6YAIfk-30" value="А" style="ellipse;whiteSpace=wrap;html=1;aspect=fixed;" parent="WIyWlLk6GJQsqaUBKTNV-1" vertex="1">
          <mxGeometry x="592.5" y="380" width="60" height="60" as="geometry" />
        </mxCell>
        <mxCell id="u6XI-dJovtT7sG6YAIfk-31" value="А" style="ellipse;whiteSpace=wrap;html=1;aspect=fixed;" parent="WIyWlLk6GJQsqaUBKTNV-1" vertex="1">
          <mxGeometry x="750" y="515" width="60" height="60" as="geometry" />
        </mxCell>
        <mxCell id="u6XI-dJovtT7sG6YAIfk-32" value="А" style="ellipse;whiteSpace=wrap;html=1;aspect=fixed;" parent="WIyWlLk6GJQsqaUBKTNV-1" vertex="1">
          <mxGeometry x="750" y="650" width="60" height="60" as="geometry" />
        </mxCell>
        <mxCell id="u6XI-dJovtT7sG6YAIfk-33" value="А" style="ellipse;whiteSpace=wrap;html=1;aspect=fixed;" parent="WIyWlLk6GJQsqaUBKTNV-1" vertex="1">
          <mxGeometry x="592.5" y="770" width="60" height="60" as="geometry" />
        </mxCell>
        <mxCell id="u6XI-dJovtT7sG6YAIfk-34" value="А" style="ellipse;whiteSpace=wrap;html=1;aspect=fixed;" parent="WIyWlLk6GJQsqaUBKTNV-1" vertex="1">
          <mxGeometry x="750" y="870" width="60" height="60" as="geometry" />
        </mxCell>
        <mxCell id="u6XI-dJovtT7sG6YAIfk-35" value="А" style="ellipse;whiteSpace=wrap;html=1;aspect=fixed;" parent="WIyWlLk6GJQsqaUBKTNV-1" vertex="1">
          <mxGeometry x="592.5" y="990" width="60" height="60" as="geometry" />
        </mxCell>
        <mxCell id="u6XI-dJovtT7sG6YAIfk-36" value="А" style="ellipse;whiteSpace=wrap;html=1;aspect=fixed;" parent="WIyWlLk6GJQsqaUBKTNV-1" vertex="1">
          <mxGeometry x="750" y="1090" width="60" height="60" as="geometry" />
        </mxCell>
        <mxCell id="u6XI-dJovtT7sG6YAIfk-37" value="А" style="ellipse;whiteSpace=wrap;html=1;aspect=fixed;" parent="WIyWlLk6GJQsqaUBKTNV-1" vertex="1">
          <mxGeometry x="592.5" y="1200" width="60" height="60" as="geometry" />
        </mxCell>
        <mxCell id="u6XI-dJovtT7sG6YAIfk-38" value="" style="endArrow=none;html=1;rounded=0;exitX=1;exitY=0.5;exitDx=0;exitDy=0;entryX=0;entryY=0.5;entryDx=0;entryDy=0;" parent="WIyWlLk6GJQsqaUBKTNV-1" source="u6XI-dJovtT7sG6YAIfk-3" target="u6XI-dJovtT7sG6YAIfk-29" edge="1">
          <mxGeometry width="50" height="50" relative="1" as="geometry">
            <mxPoint x="490" y="279.5" as="sourcePoint" />
            <mxPoint x="557" y="279.5" as="targetPoint" />
          </mxGeometry>
        </mxCell>
        <mxCell id="u6XI-dJovtT7sG6YAIfk-39" value="" style="endArrow=none;html=1;rounded=0;entryX=0;entryY=0.5;entryDx=0;entryDy=0;exitX=1;exitY=0.5;exitDx=0;exitDy=0;" parent="WIyWlLk6GJQsqaUBKTNV-1" source="u6XI-dJovtT7sG6YAIfk-5" target="u6XI-dJovtT7sG6YAIfk-30" edge="1">
          <mxGeometry width="50" height="50" relative="1" as="geometry">
            <mxPoint x="475" y="410" as="sourcePoint" />
            <mxPoint x="592.5" y="409.5" as="targetPoint" />
          </mxGeometry>
        </mxCell>
        <mxCell id="u6XI-dJovtT7sG6YAIfk-40" value="" style="endArrow=none;html=1;rounded=0;exitX=1;exitY=0.5;exitDx=0;exitDy=0;entryX=0;entryY=0.5;entryDx=0;entryDy=0;" parent="WIyWlLk6GJQsqaUBKTNV-1" source="u6XI-dJovtT7sG6YAIfk-9" target="u6XI-dJovtT7sG6YAIfk-31" edge="1">
          <mxGeometry width="50" height="50" relative="1" as="geometry">
            <mxPoint x="695" y="460" as="sourcePoint" />
            <mxPoint x="813" y="460" as="targetPoint" />
          </mxGeometry>
        </mxCell>
        <mxCell id="u6XI-dJovtT7sG6YAIfk-41" value="" style="endArrow=none;html=1;rounded=0;exitX=1;exitY=0.5;exitDx=0;exitDy=0;entryX=0;entryY=0.5;entryDx=0;entryDy=0;" parent="WIyWlLk6GJQsqaUBKTNV-1" source="u6XI-dJovtT7sG6YAIfk-11" target="u6XI-dJovtT7sG6YAIfk-32" edge="1">
          <mxGeometry width="50" height="50" relative="1" as="geometry">
            <mxPoint x="695" y="550" as="sourcePoint" />
            <mxPoint x="760" y="550" as="targetPoint" />
          </mxGeometry>
        </mxCell>
        <mxCell id="u6XI-dJovtT7sG6YAIfk-42" value="" style="endArrow=none;html=1;rounded=0;exitX=1;exitY=0.5;exitDx=0;exitDy=0;entryX=0;entryY=0.5;entryDx=0;entryDy=0;" parent="WIyWlLk6GJQsqaUBKTNV-1" source="u6XI-dJovtT7sG6YAIfk-12" target="u6XI-dJovtT7sG6YAIfk-33" edge="1">
          <mxGeometry width="50" height="50" relative="1" as="geometry">
            <mxPoint x="510" y="799.5" as="sourcePoint" />
            <mxPoint x="590" y="800" as="targetPoint" />
          </mxGeometry>
        </mxCell>
        <mxCell id="u6XI-dJovtT7sG6YAIfk-43" value="" style="endArrow=none;html=1;rounded=0;exitX=1;exitY=0.5;exitDx=0;exitDy=0;entryX=0;entryY=0.5;entryDx=0;entryDy=0;" parent="WIyWlLk6GJQsqaUBKTNV-1" source="u6XI-dJovtT7sG6YAIfk-15" target="u6XI-dJovtT7sG6YAIfk-34" edge="1">
          <mxGeometry width="50" height="50" relative="1" as="geometry">
            <mxPoint x="485" y="810" as="sourcePoint" />
            <mxPoint x="603" y="810" as="targetPoint" />
          </mxGeometry>
        </mxCell>
        <mxCell id="u6XI-dJovtT7sG6YAIfk-44" value="" style="endArrow=none;html=1;rounded=0;exitX=1;exitY=0.5;exitDx=0;exitDy=0;entryX=0;entryY=0.5;entryDx=0;entryDy=0;" parent="WIyWlLk6GJQsqaUBKTNV-1" source="u6XI-dJovtT7sG6YAIfk-16" target="u6XI-dJovtT7sG6YAIfk-35" edge="1">
          <mxGeometry width="50" height="50" relative="1" as="geometry">
            <mxPoint x="500" y="1019.5" as="sourcePoint" />
            <mxPoint x="565" y="1019.5" as="targetPoint" />
          </mxGeometry>
        </mxCell>
        <mxCell id="u6XI-dJovtT7sG6YAIfk-45" value="" style="endArrow=none;html=1;rounded=0;exitX=1;exitY=0.5;exitDx=0;exitDy=0;entryX=0;entryY=0.5;entryDx=0;entryDy=0;" parent="WIyWlLk6GJQsqaUBKTNV-1" target="u6XI-dJovtT7sG6YAIfk-5" edge="1">
          <mxGeometry width="50" height="50" relative="1" as="geometry">
            <mxPoint x="280" y="410" as="sourcePoint" />
            <mxPoint x="394.5" y="350" as="targetPoint" />
          </mxGeometry>
        </mxCell>
        <mxCell id="u6XI-dJovtT7sG6YAIfk-46" value="" style="endArrow=none;html=1;rounded=0;exitX=1;exitY=0.5;exitDx=0;exitDy=0;entryX=0;entryY=0.5;entryDx=0;entryDy=0;" parent="WIyWlLk6GJQsqaUBKTNV-1" source="u6XI-dJovtT7sG6YAIfk-7" target="u6XI-dJovtT7sG6YAIfk-8" edge="1">
          <mxGeometry width="50" height="50" relative="1" as="geometry">
            <mxPoint x="289" y="420" as="sourcePoint" />
            <mxPoint x="360" y="420" as="targetPoint" />
          </mxGeometry>
        </mxCell>
        <mxCell id="u6XI-dJovtT7sG6YAIfk-47" value="" style="endArrow=none;html=1;rounded=0;entryX=0.5;entryY=0;entryDx=0;entryDy=0;exitX=0.5;exitY=1;exitDx=0;exitDy=0;" parent="WIyWlLk6GJQsqaUBKTNV-1" source="u6XI-dJovtT7sG6YAIfk-49" target="u6XI-dJovtT7sG6YAIfk-48" edge="1">
          <mxGeometry width="50" height="50" relative="1" as="geometry">
            <mxPoint x="178.75" y="340" as="sourcePoint" />
            <mxPoint x="178.75" y="350" as="targetPoint" />
          </mxGeometry>
        </mxCell>
        <mxCell id="u6XI-dJovtT7sG6YAIfk-48" value="Яркость меньше 20?" style="rhombus;whiteSpace=wrap;html=1;" parent="WIyWlLk6GJQsqaUBKTNV-1" vertex="1">
          <mxGeometry x="77.5" y="350" width="205" height="120" as="geometry" />
        </mxCell>
        <mxCell id="u6XI-dJovtT7sG6YAIfk-49" value="Яркость больше 230?" style="rhombus;whiteSpace=wrap;html=1;" parent="WIyWlLk6GJQsqaUBKTNV-1" vertex="1">
          <mxGeometry x="77.5" y="220" width="205" height="120" as="geometry" />
        </mxCell>
        <mxCell id="u6XI-dJovtT7sG6YAIfk-50" value="" style="endArrow=none;html=1;rounded=0;exitX=0.5;exitY=1;exitDx=0;exitDy=0;entryX=0.5;entryY=0;entryDx=0;entryDy=0;" parent="WIyWlLk6GJQsqaUBKTNV-1" source="u6XI-dJovtT7sG6YAIfk-48" target="u6XI-dJovtT7sG6YAIfk-7" edge="1">
          <mxGeometry width="50" height="50" relative="1" as="geometry">
            <mxPoint x="290" y="420" as="sourcePoint" />
            <mxPoint x="360" y="420" as="targetPoint" />
          </mxGeometry>
        </mxCell>
        <mxCell id="u6XI-dJovtT7sG6YAIfk-51" value="" style="endArrow=none;html=1;rounded=0;exitX=0.5;exitY=1;exitDx=0;exitDy=0;entryX=0.5;entryY=0;entryDx=0;entryDy=0;" parent="WIyWlLk6GJQsqaUBKTNV-1" source="u6XI-dJovtT7sG6YAIfk-7" target="u6XI-dJovtT7sG6YAIfk-13" edge="1">
          <mxGeometry width="50" height="50" relative="1" as="geometry">
            <mxPoint x="180" y="660" as="sourcePoint" />
            <mxPoint x="250" y="660" as="targetPoint" />
          </mxGeometry>
        </mxCell>
        <mxCell id="u6XI-dJovtT7sG6YAIfk-52" value="" style="endArrow=none;html=1;rounded=0;exitX=0.5;exitY=1;exitDx=0;exitDy=0;entryX=0.5;entryY=0;entryDx=0;entryDy=0;" parent="WIyWlLk6GJQsqaUBKTNV-1" source="u6XI-dJovtT7sG6YAIfk-8" target="u6XI-dJovtT7sG6YAIfk-10" edge="1">
          <mxGeometry width="50" height="50" relative="1" as="geometry">
            <mxPoint x="293" y="555" as="sourcePoint" />
            <mxPoint x="320" y="555" as="targetPoint" />
          </mxGeometry>
        </mxCell>
        <mxCell id="u6XI-dJovtT7sG6YAIfk-53" value="" style="endArrow=none;html=1;rounded=0;entryX=0;entryY=0.5;entryDx=0;entryDy=0;exitX=1;exitY=0.5;exitDx=0;exitDy=0;" parent="WIyWlLk6GJQsqaUBKTNV-1" source="u6XI-dJovtT7sG6YAIfk-8" target="u6XI-dJovtT7sG6YAIfk-9" edge="1">
          <mxGeometry width="50" height="50" relative="1" as="geometry">
            <mxPoint x="293" y="555" as="sourcePoint" />
            <mxPoint x="320" y="555" as="targetPoint" />
          </mxGeometry>
        </mxCell>
        <mxCell id="u6XI-dJovtT7sG6YAIfk-54" value="" style="endArrow=none;html=1;rounded=0;entryX=0;entryY=0.5;entryDx=0;entryDy=0;" parent="WIyWlLk6GJQsqaUBKTNV-1" target="u6XI-dJovtT7sG6YAIfk-11" edge="1">
          <mxGeometry width="50" height="50" relative="1" as="geometry">
            <mxPoint x="515" y="680" as="sourcePoint" />
            <mxPoint x="570" y="555" as="targetPoint" />
          </mxGeometry>
        </mxCell>
        <mxCell id="u6XI-dJovtT7sG6YAIfk-55" value="" style="endArrow=none;html=1;rounded=0;entryX=0.5;entryY=0;entryDx=0;entryDy=0;exitX=0.5;exitY=1;exitDx=0;exitDy=0;" parent="WIyWlLk6GJQsqaUBKTNV-1" source="u6XI-dJovtT7sG6YAIfk-10" target="u6XI-dJovtT7sG6YAIfk-12" edge="1">
          <mxGeometry width="50" height="50" relative="1" as="geometry">
            <mxPoint x="525" y="690" as="sourcePoint" />
            <mxPoint x="570" y="690" as="targetPoint" />
          </mxGeometry>
        </mxCell>
        <mxCell id="u6XI-dJovtT7sG6YAIfk-56" value="" style="endArrow=none;html=1;rounded=0;exitX=1;exitY=0.5;exitDx=0;exitDy=0;entryX=0;entryY=0.5;entryDx=0;entryDy=0;" parent="WIyWlLk6GJQsqaUBKTNV-1" source="u6XI-dJovtT7sG6YAIfk-13" target="u6XI-dJovtT7sG6YAIfk-14" edge="1">
          <mxGeometry width="50" height="50" relative="1" as="geometry">
            <mxPoint x="485" y="810" as="sourcePoint" />
            <mxPoint x="603" y="810" as="targetPoint" />
          </mxGeometry>
        </mxCell>
        <mxCell id="u6XI-dJovtT7sG6YAIfk-57" value="" style="endArrow=none;html=1;rounded=0;exitX=1;exitY=0.5;exitDx=0;exitDy=0;entryX=0;entryY=0.5;entryDx=0;entryDy=0;" parent="WIyWlLk6GJQsqaUBKTNV-1" source="u6XI-dJovtT7sG6YAIfk-14" target="u6XI-dJovtT7sG6YAIfk-15" edge="1">
          <mxGeometry width="50" height="50" relative="1" as="geometry">
            <mxPoint x="485" y="810" as="sourcePoint" />
            <mxPoint x="603" y="810" as="targetPoint" />
          </mxGeometry>
        </mxCell>
        <mxCell id="u6XI-dJovtT7sG6YAIfk-58" value="" style="endArrow=none;html=1;rounded=0;exitX=0.5;exitY=1;exitDx=0;exitDy=0;entryX=0.5;entryY=0;entryDx=0;entryDy=0;" parent="WIyWlLk6GJQsqaUBKTNV-1" source="u6XI-dJovtT7sG6YAIfk-14" target="u6XI-dJovtT7sG6YAIfk-16" edge="1">
          <mxGeometry width="50" height="50" relative="1" as="geometry">
            <mxPoint x="525" y="910" as="sourcePoint" />
            <mxPoint x="570" y="910" as="targetPoint" />
          </mxGeometry>
        </mxCell>
        <mxCell id="u6XI-dJovtT7sG6YAIfk-59" value="" style="endArrow=none;html=1;rounded=0;exitX=0.5;exitY=1;exitDx=0;exitDy=0;entryX=0.5;entryY=0;entryDx=0;entryDy=0;" parent="WIyWlLk6GJQsqaUBKTNV-1" source="u6XI-dJovtT7sG6YAIfk-13" target="u6XI-dJovtT7sG6YAIfk-17" edge="1">
          <mxGeometry width="50" height="50" relative="1" as="geometry">
            <mxPoint x="423" y="970" as="sourcePoint" />
            <mxPoint x="423" y="1000" as="targetPoint" />
          </mxGeometry>
        </mxCell>
        <mxCell id="u6XI-dJovtT7sG6YAIfk-60" value="" style="endArrow=none;html=1;rounded=0;exitX=0;exitY=0.5;exitDx=0;exitDy=0;" parent="WIyWlLk6GJQsqaUBKTNV-1" source="u6XI-dJovtT7sG6YAIfk-19" edge="1">
          <mxGeometry width="50" height="50" relative="1" as="geometry">
            <mxPoint x="423" y="970" as="sourcePoint" />
            <mxPoint x="515" y="1120" as="targetPoint" />
          </mxGeometry>
        </mxCell>
        <mxCell id="u6XI-dJovtT7sG6YAIfk-61" value="" style="endArrow=none;html=1;rounded=0;entryX=1;entryY=0.5;entryDx=0;entryDy=0;exitX=0;exitY=0.5;exitDx=0;exitDy=0;" parent="WIyWlLk6GJQsqaUBKTNV-1" source="u6XI-dJovtT7sG6YAIfk-18" target="u6XI-dJovtT7sG6YAIfk-17" edge="1">
          <mxGeometry width="50" height="50" relative="1" as="geometry">
            <mxPoint x="310" y="1120" as="sourcePoint" />
            <mxPoint x="525" y="1130" as="targetPoint" />
          </mxGeometry>
        </mxCell>
        <mxCell id="u6XI-dJovtT7sG6YAIfk-62" value="" style="endArrow=none;html=1;rounded=0;exitX=0.5;exitY=1;exitDx=0;exitDy=0;entryX=0.5;entryY=0;entryDx=0;entryDy=0;" parent="WIyWlLk6GJQsqaUBKTNV-1" source="u6XI-dJovtT7sG6YAIfk-18" target="u6XI-dJovtT7sG6YAIfk-20" edge="1">
          <mxGeometry width="50" height="50" relative="1" as="geometry">
            <mxPoint x="485" y="1030" as="sourcePoint" />
            <mxPoint x="603" y="1030" as="targetPoint" />
          </mxGeometry>
        </mxCell>
        <mxCell id="u6XI-dJovtT7sG6YAIfk-63" value="" style="endArrow=none;html=1;rounded=0;exitX=0.5;exitY=1;exitDx=0;exitDy=0;entryX=0.5;entryY=0;entryDx=0;entryDy=0;" parent="WIyWlLk6GJQsqaUBKTNV-1" source="u6XI-dJovtT7sG6YAIfk-17" target="u6XI-dJovtT7sG6YAIfk-21" edge="1">
          <mxGeometry width="50" height="50" relative="1" as="geometry">
            <mxPoint x="423" y="1190" as="sourcePoint" />
            <mxPoint x="423" y="1210" as="targetPoint" />
          </mxGeometry>
        </mxCell>
        <mxCell id="u6XI-dJovtT7sG6YAIfk-64" value="" style="endArrow=none;html=1;rounded=0;exitX=0;exitY=0.5;exitDx=0;exitDy=0;entryX=1;entryY=0.5;entryDx=0;entryDy=0;" parent="WIyWlLk6GJQsqaUBKTNV-1" source="u6XI-dJovtT7sG6YAIfk-36" target="u6XI-dJovtT7sG6YAIfk-19" edge="1">
          <mxGeometry width="50" height="50" relative="1" as="geometry">
            <mxPoint x="570" y="1130" as="sourcePoint" />
            <mxPoint x="525" y="1130" as="targetPoint" />
          </mxGeometry>
        </mxCell>
        <mxCell id="u6XI-dJovtT7sG6YAIfk-65" value="" style="endArrow=none;html=1;rounded=0;exitX=0;exitY=0.5;exitDx=0;exitDy=0;entryX=1;entryY=0.5;entryDx=0;entryDy=0;" parent="WIyWlLk6GJQsqaUBKTNV-1" source="u6XI-dJovtT7sG6YAIfk-20" target="u6XI-dJovtT7sG6YAIfk-21" edge="1">
          <mxGeometry width="50" height="50" relative="1" as="geometry">
            <mxPoint x="570" y="1130" as="sourcePoint" />
            <mxPoint x="525" y="1130" as="targetPoint" />
          </mxGeometry>
        </mxCell>
        <mxCell id="u6XI-dJovtT7sG6YAIfk-66" value="" style="endArrow=none;html=1;rounded=0;exitX=0;exitY=0.5;exitDx=0;exitDy=0;entryX=1;entryY=0.5;entryDx=0;entryDy=0;" parent="WIyWlLk6GJQsqaUBKTNV-1" source="u6XI-dJovtT7sG6YAIfk-37" target="u6XI-dJovtT7sG6YAIfk-20" edge="1">
          <mxGeometry width="50" height="50" relative="1" as="geometry">
            <mxPoint x="360" y="1240" as="sourcePoint" />
            <mxPoint x="253" y="1240" as="targetPoint" />
          </mxGeometry>
        </mxCell>
        <mxCell id="u6XI-dJovtT7sG6YAIfk-68" value="Да" style="text;html=1;align=center;verticalAlign=middle;whiteSpace=wrap;rounded=0;" parent="WIyWlLk6GJQsqaUBKTNV-1" vertex="1">
          <mxGeometry x="270" y="250" width="60" height="30" as="geometry" />
        </mxCell>
        <mxCell id="u6XI-dJovtT7sG6YAIfk-69" value="Нет" style="text;html=1;align=center;verticalAlign=middle;whiteSpace=wrap;rounded=0;" parent="WIyWlLk6GJQsqaUBKTNV-1" vertex="1">
          <mxGeometry x="107.5" y="330" width="60" height="30" as="geometry" />
        </mxCell>
        <mxCell id="u6XI-dJovtT7sG6YAIfk-70" value="Нет" style="text;html=1;align=center;verticalAlign=middle;whiteSpace=wrap;rounded=0;" parent="WIyWlLk6GJQsqaUBKTNV-1" vertex="1">
          <mxGeometry x="107.5" y="605" width="60" height="30" as="geometry" />
        </mxCell>
        <mxCell id="u6XI-dJovtT7sG6YAIfk-71" value="Нет" style="text;html=1;align=center;verticalAlign=middle;whiteSpace=wrap;rounded=0;" parent="WIyWlLk6GJQsqaUBKTNV-1" vertex="1">
          <mxGeometry x="107.5" y="460" width="60" height="30" as="geometry" />
        </mxCell>
        <mxCell id="u6XI-dJovtT7sG6YAIfk-72" value="Нет" style="text;html=1;align=center;verticalAlign=middle;whiteSpace=wrap;rounded=0;" parent="WIyWlLk6GJQsqaUBKTNV-1" vertex="1">
          <mxGeometry x="350" y="605" width="60" height="30" as="geometry" />
        </mxCell>
        <mxCell id="u6XI-dJovtT7sG6YAIfk-73" value="Нет" style="text;html=1;align=center;verticalAlign=middle;whiteSpace=wrap;rounded=0;" parent="WIyWlLk6GJQsqaUBKTNV-1" vertex="1">
          <mxGeometry x="107.5" y="950" width="60" height="30" as="geometry" />
        </mxCell>
        <mxCell id="u6XI-dJovtT7sG6YAIfk-74" value="Нет" style="text;html=1;align=center;verticalAlign=middle;whiteSpace=wrap;rounded=0;" parent="WIyWlLk6GJQsqaUBKTNV-1" vertex="1">
          <mxGeometry x="340" y="950" width="60" height="30" as="geometry" />
        </mxCell>
        <mxCell id="u6XI-dJovtT7sG6YAIfk-75" value="Нет" style="text;html=1;align=center;verticalAlign=middle;whiteSpace=wrap;rounded=0;" parent="WIyWlLk6GJQsqaUBKTNV-1" vertex="1">
          <mxGeometry x="350" y="740" width="60" height="30" as="geometry" />
        </mxCell>
        <mxCell id="u6XI-dJovtT7sG6YAIfk-76" value="Нет" style="text;html=1;align=center;verticalAlign=middle;whiteSpace=wrap;rounded=0;" parent="WIyWlLk6GJQsqaUBKTNV-1" vertex="1">
          <mxGeometry x="107.5" y="1170" width="60" height="30" as="geometry" />
        </mxCell>
        <mxCell id="u6XI-dJovtT7sG6YAIfk-77" value="Нет" style="text;html=1;align=center;verticalAlign=middle;whiteSpace=wrap;rounded=0;" parent="WIyWlLk6GJQsqaUBKTNV-1" vertex="1">
          <mxGeometry x="340" y="1170" width="60" height="30" as="geometry" />
        </mxCell>
        <mxCell id="u6XI-dJovtT7sG6YAIfk-78" value="Да" style="text;html=1;align=center;verticalAlign=middle;whiteSpace=wrap;rounded=0;" parent="WIyWlLk6GJQsqaUBKTNV-1" vertex="1">
          <mxGeometry x="270" y="380" width="60" height="30" as="geometry" />
        </mxCell>
        <mxCell id="u6XI-dJovtT7sG6YAIfk-79" value="Да" style="text;html=1;align=center;verticalAlign=middle;whiteSpace=wrap;rounded=0;" parent="WIyWlLk6GJQsqaUBKTNV-1" vertex="1">
          <mxGeometry x="270" y="515" width="60" height="30" as="geometry" />
        </mxCell>
        <mxCell id="u6XI-dJovtT7sG6YAIfk-80" value="Да" style="text;html=1;align=center;verticalAlign=middle;whiteSpace=wrap;rounded=0;" parent="WIyWlLk6GJQsqaUBKTNV-1" vertex="1">
          <mxGeometry x="500" y="515" width="60" height="30" as="geometry" />
        </mxCell>
        <mxCell id="u6XI-dJovtT7sG6YAIfk-81" value="Да" style="text;html=1;align=center;verticalAlign=middle;whiteSpace=wrap;rounded=0;" parent="WIyWlLk6GJQsqaUBKTNV-1" vertex="1">
          <mxGeometry x="500" y="650" width="60" height="30" as="geometry" />
        </mxCell>
        <mxCell id="u6XI-dJovtT7sG6YAIfk-82" value="Да" style="text;html=1;align=center;verticalAlign=middle;whiteSpace=wrap;rounded=0;" parent="WIyWlLk6GJQsqaUBKTNV-1" vertex="1">
          <mxGeometry x="500" y="870" width="60" height="30" as="geometry" />
        </mxCell>
        <mxCell id="u6XI-dJovtT7sG6YAIfk-83" value="Да" style="text;html=1;align=center;verticalAlign=middle;whiteSpace=wrap;rounded=0;" parent="WIyWlLk6GJQsqaUBKTNV-1" vertex="1">
          <mxGeometry x="270" y="870" width="60" height="30" as="geometry" />
        </mxCell>
        <mxCell id="u6XI-dJovtT7sG6YAIfk-86" value="Да" style="text;html=1;align=center;verticalAlign=middle;whiteSpace=wrap;rounded=0;" parent="WIyWlLk6GJQsqaUBKTNV-1" vertex="1">
          <mxGeometry x="270" y="1090" width="60" height="30" as="geometry" />
        </mxCell>
        <mxCell id="u6XI-dJovtT7sG6YAIfk-87" value="Да" style="text;html=1;align=center;verticalAlign=middle;whiteSpace=wrap;rounded=0;" parent="WIyWlLk6GJQsqaUBKTNV-1" vertex="1">
          <mxGeometry x="500" y="1090" width="60" height="30" as="geometry" />
        </mxCell>
        <mxCell id="u6XI-dJovtT7sG6YAIfk-88" value="Определение психологического состояния по полученному цвету" style="rounded=0;whiteSpace=wrap;html=1;" parent="WIyWlLk6GJQsqaUBKTNV-1" vertex="1">
          <mxGeometry x="78.75" y="1290" width="202.5" height="40" as="geometry" />
        </mxCell>
        <mxCell id="u6XI-dJovtT7sG6YAIfk-89" value="А" style="ellipse;whiteSpace=wrap;html=1;aspect=fixed;" parent="WIyWlLk6GJQsqaUBKTNV-1" vertex="1">
          <mxGeometry x="10" y="1240" width="60" height="60" as="geometry" />
        </mxCell>
        <mxCell id="u6XI-dJovtT7sG6YAIfk-90" value="" style="endArrow=none;html=1;rounded=0;exitX=0.5;exitY=0;exitDx=0;exitDy=0;entryX=0.5;entryY=1;entryDx=0;entryDy=0;" parent="WIyWlLk6GJQsqaUBKTNV-1" source="u6XI-dJovtT7sG6YAIfk-88" target="u6XI-dJovtT7sG6YAIfk-21" edge="1">
          <mxGeometry width="50" height="50" relative="1" as="geometry">
            <mxPoint x="360" y="1240" as="sourcePoint" />
            <mxPoint x="253" y="1240" as="targetPoint" />
          </mxGeometry>
        </mxCell>
        <mxCell id="u6XI-dJovtT7sG6YAIfk-91" value="" style="endArrow=none;html=1;rounded=0;exitX=0.5;exitY=0;exitDx=0;exitDy=0;entryX=0.5;entryY=1;entryDx=0;entryDy=0;" parent="WIyWlLk6GJQsqaUBKTNV-1" source="FxWy3S0wNq0ULgGaOXV3-1" target="u6XI-dJovtT7sG6YAIfk-88" edge="1">
          <mxGeometry width="50" height="50" relative="1" as="geometry">
            <mxPoint x="180" y="1350" as="sourcePoint" />
            <mxPoint x="190" y="1270" as="targetPoint" />
          </mxGeometry>
        </mxCell>
        <mxCell id="u6XI-dJovtT7sG6YAIfk-92" value="" style="endArrow=none;html=1;rounded=0;entryX=1;entryY=0.5;entryDx=0;entryDy=0;" parent="WIyWlLk6GJQsqaUBKTNV-1" target="u6XI-dJovtT7sG6YAIfk-89" edge="1">
          <mxGeometry width="50" height="50" relative="1" as="geometry">
            <mxPoint x="180" y="1270" as="sourcePoint" />
            <mxPoint x="190" y="1270" as="targetPoint" />
          </mxGeometry>
        </mxCell>
        <mxCell id="FxWy3S0wNq0ULgGaOXV3-0" value="&lt;div style=&quot;&quot;&gt;&amp;nbsp; &amp;nbsp; &amp;nbsp; &amp;nbsp; Начало&lt;/div&gt;" style="html=1;align=center;verticalAlign=top;rounded=1;absoluteArcSize=1;arcSize=50;dashed=0;spacingTop=10;spacingRight=30;whiteSpace=wrap;" vertex="1" parent="WIyWlLk6GJQsqaUBKTNV-1">
          <mxGeometry x="77.5" y="10" width="210" height="50" as="geometry" />
        </mxCell>
        <mxCell id="FxWy3S0wNq0ULgGaOXV3-1" value="&lt;div style=&quot;&quot;&gt;&amp;nbsp; &amp;nbsp; &amp;nbsp; &amp;nbsp; &amp;nbsp;Конец&lt;/div&gt;" style="html=1;align=center;verticalAlign=top;rounded=1;absoluteArcSize=1;arcSize=50;dashed=0;spacingTop=10;spacingRight=30;whiteSpace=wrap;" vertex="1" parent="WIyWlLk6GJQsqaUBKTNV-1">
          <mxGeometry x="75" y="1350" width="210" height="50" as="geometry" />
        </mxCell>
      </root>
    </mxGraphModel>
  </diagram>
</mxfile>
